<?xml version="1.0" standalone="no"?>
<!DOCTYPE svg PUBLIC "-//W3C//DTD SVG 20010904//EN"
 "http://www.w3.org/TR/2001/REC-SVG-20010904/DTD/svg10.dtd">
<svg version="1.0" xmlns="http://www.w3.org/2000/svg"
 width="559.000000pt" height="447.000000pt" viewBox="0 0 559.000000 447.000000"
 preserveAspectRatio="xMidYMid meet">

<g transform="translate(0.000000,447.000000) scale(0.100000,-0.100000)"
fill="#000000" stroke="none">
<path d="M3120 3545 c-21 -25 -2 -65 66 -134 36 -36 81 -92 101 -124 28 -44
41 -57 57 -55 31 4 31 37 0 115 -35 88 -75 147 -126 184 -45 32 -79 37 -98 14z
m78 -41 c3 -22 -21 -39 -39 -28 -11 6 -12 38 -2 48 13 13 38 1 41 -20z"/>
<path d="M2581 3238 c-1 -50 -18 -75 -54 -83 -12 -2 -31 -6 -42 -8 -16 -4 -15
-5 5 -6 39 -2 62 -26 76 -78 7 -27 13 -38 13 -25 1 37 29 81 56 88 29 7 33 24
6 24 -28 0 -45 27 -52 84 l-6 51 -2 -47z"/>
<path d="M3385 3231 c-3 -6 -26 -11 -51 -11 -41 0 -45 -2 -42 -22 2 -18 11
-24 34 -26 45 -4 106 23 102 45 -4 20 -33 29 -43 14z m-65 -36 c0 -8 -4 -15
-10 -15 -5 0 -10 7 -10 15 0 8 5 15 10 15 6 0 10 -7 10 -15z m51 0 c-1 -15
-24 -12 -29 3 -3 9 2 13 12 10 10 -1 17 -7 17 -13z"/>
<path d="M3408 3175 c-15 -9 -58 -20 -95 -24 -38 -5 -86 -19 -108 -30 -44 -23
-118 -81 -112 -87 2 -2 46 5 98 16 52 12 112 25 134 29 91 19 231 52 240 56
20 10 -54 -3 -229 -39 -98 -20 -180 -35 -183 -32 -12 11 243 71 391 92 37 5
47 4 41 -5 -5 -9 3 -11 32 -5 46 8 50 11 35 26 -20 20 -211 22 -244 3z"/>
<path d="M3709 3136 c-2 -2 -47 -13 -99 -25 -158 -34 -321 -71 -405 -91 -44
-10 -97 -22 -117 -26 -32 -5 -38 -10 -38 -30 0 -13 5 -24 12 -24 10 0 89 17
500 106 86 19 160 34 163 34 3 0 5 14 5 30 0 27 -9 38 -21 26z"/>
<path d="M3655 3038 c-47 -11 -385 -82 -495 -104 -112 -22 -108 -19 -106 -67
1 -35 11 -55 65 -124 l64 -83 103 0 103 0 62 -77 c35 -43 66 -80 70 -83 6 -5
29 -46 29 -53 0 -2 -14 -4 -31 -5 -17 0 -33 -3 -35 -5 -3 -3 -4 -37 -2 -76 l3
-71 48 62 c26 35 45 69 42 76 -2 7 0 10 5 7 11 -7 95 163 86 173 -3 2 -1 13 5
23 18 34 50 214 56 317 7 115 10 110 -72 90z"/>
<path d="M2136 3003 c-8 -47 -14 -53 -60 -64 -23 -5 -25 -7 -9 -8 27 -1 63
-46 64 -80 1 -28 3 -23 13 22 4 16 17 32 31 39 31 14 31 20 3 33 -18 8 -24 21
-28 55 l-6 45 -8 -42z"/>
<path d="M2760 2855 l0 -85 -30 0 c-27 0 -30 3 -30 30 l0 30 -177 0 -178 -1
-175 -169 -175 -170 48 0 c31 0 47 -4 47 -12 0 -7 -7 -80 -15 -163 -8 -82 -15
-156 -15 -162 0 -19 -35 -16 -79 6 -50 26 -64 44 -71 94 l-6 42 -22 -42 c-28
-54 -29 -125 -1 -199 43 -115 145 -186 318 -225 47 -10 92 -19 99 -19 11 0 13
30 11 150 l-3 151 27 27 27 27 28 -28 c26 -27 27 -30 33 -180 l5 -152 2 157
c2 150 3 158 26 182 29 32 36 32 61 -2 17 -23 21 -48 25 -182 l6 -155 3 165 2
165 28 22 28 22 24 -25 c23 -24 24 -35 29 -182 l6 -157 2 158 c2 145 4 160 24
187 27 37 34 37 62 3 19 -24 22 -44 26 -173 l6 -145 2 151 2 150 28 27 28 27
25 -26 c22 -24 24 -35 30 -157 l5 -132 2 134 c2 131 3 136 28 162 26 27 54 29
54 4 0 -7 6 -15 13 -17 8 -3 14 -40 18 -114 l5 -109 2 111 c2 107 3 111 30
137 l28 27 24 -25 c13 -13 26 -42 30 -62 l8 -38 1 39 c1 37 33 86 56 86 25 0
55 -49 55 -90 l0 -42 48 37 c26 21 64 54 85 74 l37 35 0 122 c0 115 1 123 20
126 19 3 19 4 -6 33 -14 17 -38 45 -54 63 l-28 33 -63 -65 c-35 -36 -67 -72
-71 -81 -6 -10 -24 -15 -52 -15 -41 0 -292 23 -385 36 l-43 6 95 93 c52 52
106 109 120 127 24 32 67 104 67 113 0 2 -33 5 -72 7 l-73 3 -3 53 -3 52 -60
0 -59 0 0 -85z m-225 -220 l120 -130 -32 -3 c-31 -3 -31 -3 -39 -75 l-7 -72
-116 -77 c-157 -104 -228 -138 -297 -145 l-57 -6 6 89 c4 49 10 137 13 197 l7
107 -29 0 c-27 1 -16 13 121 145 l150 144 20 -22 c12 -12 75 -80 140 -152z
m863 -168 c8 -6 12 -41 12 -108 l0 -99 -45 0 -45 0 0 97 c0 123 22 153 78 110z"/>
<path d="M2319 2563 c-13 -3 -49 -52 -49 -67 0 -3 38 -6 85 -6 95 0 106 10 60
55 -23 24 -54 30 -96 18z"/>
<path d="M2270 2400 l0 -70 35 0 35 0 0 70 0 70 -35 0 -35 0 0 -70z"/>
<path d="M2370 2431 c0 -21 -3 -53 -6 -70 -6 -30 -5 -31 29 -31 40 0 47 14 47
93 l0 47 -35 0 c-34 0 -35 -1 -35 -39z"/>
<path d="M3401 2073 c-2 -38 -13 -53 -38 -53 l-26 0 27 -21 c14 -11 26 -30 26
-42 0 -19 3 -18 20 11 11 17 28 32 37 32 16 1 16 2 -2 12 -28 15 -26 13 -35
50 -5 22 -8 26 -9 11z"/>
<path d="M3142 2040 c0 -19 2 -27 5 -17 2 9 2 25 0 35 -3 9 -5 1 -5 -18z"/>
<path d="M1884 1526 c-36 -16 -44 -32 -44 -87 0 -52 12 -73 50 -89 85 -35 158
79 97 152 -27 34 -63 42 -103 24z m72 -50 c15 -61 -16 -114 -53 -90 -22 13
-29 79 -12 100 19 23 58 18 65 -10z"/>
<path d="M3573 1524 c-68 -34 -67 -138 3 -171 32 -16 36 -16 68 0 72 34 68
151 -6 176 -17 6 -31 11 -32 11 -1 0 -15 -7 -33 -16z m73 -48 c9 -37 1 -78
-18 -90 -38 -24 -69 29 -54 90 5 19 13 24 36 24 23 0 31 -5 36 -24z"/>
<path d="M4533 1530 c-26 -11 -39 -51 -25 -76 6 -10 25 -23 44 -30 47 -16 43
-39 -7 -39 -48 0 -55 -23 -11 -38 23 -8 37 -6 63 8 29 16 34 23 31 49 -2 25
-11 35 -45 51 -53 24 -57 48 -8 44 49 -5 66 15 24 30 -37 13 -37 13 -66 1z"/>
<path d="M5353 1533 c-74 -14 -85 -159 -14 -179 39 -11 44 -11 69 0 31 13 21
32 -15 28 -37 -4 -63 19 -63 54 0 46 17 64 60 64 45 0 53 16 14 30 -14 6 -26
9 -27 9 -1 -1 -12 -4 -24 -6z"/>
<path d="M190 1440 l0 -90 49 0 c64 0 89 21 97 82 6 41 3 49 -19 72 -21 21
-36 26 -77 26 l-50 0 0 -90z m94 44 c33 -33 8 -110 -33 -102 -12 2 -17 17 -19
61 -3 51 -1 57 17 57 11 0 27 -7 35 -16z"/>
<path d="M447 1443 c1 -81 3 -88 22 -91 17 -3 21 2 21 27 0 41 28 41 43 1 8
-22 18 -30 35 -30 13 0 22 3 20 8 -2 4 -10 19 -17 34 -12 24 -12 30 2 46 10
10 17 28 17 40 0 36 -27 52 -88 52 l-57 0 2 -87z m98 47 c10 -16 -15 -51 -33
-48 -10 2 -18 15 -20 31 -3 23 0 27 22 27 14 0 28 -4 31 -10z"/>
<path d="M700 1440 l0 -90 60 0 c47 0 60 3 60 15 0 11 -11 15 -40 15 -36 0
-40 3 -40 24 0 21 6 25 33 28 17 2 32 8 32 13 0 6 -15 11 -32 13 -25 2 -33 8
-33 23 0 15 7 19 35 19 24 0 35 5 35 15 0 12 -13 15 -55 15 l-55 0 0 -90z"/>
<path d="M950 1516 c0 -7 -9 -42 -20 -76 -11 -34 -20 -69 -20 -76 0 -8 9 -14
20 -14 13 0 20 7 20 20 0 16 7 20 35 20 28 0 35 -4 35 -20 0 -14 7 -20 24 -20
24 0 24 0 11 48 -41 141 -36 132 -72 132 -21 0 -33 -5 -33 -14z m60 -87 c0 -5
-11 -9 -24 -9 -23 0 -23 2 -13 41 l10 41 13 -32 c8 -18 14 -36 14 -41z"/>
<path d="M1160 1441 c0 -86 1 -91 21 -91 20 0 21 4 17 59 -5 70 4 70 27 1 18
-54 31 -62 44 -27 5 12 16 38 24 57 l16 35 -6 -62 c-5 -59 -4 -63 16 -63 20 0
21 5 21 91 0 86 -1 90 -21 87 -15 -2 -28 -19 -44 -57 l-22 -54 -21 54 c-16 44
-24 55 -46 57 l-26 3 0 -90z"/>
<path d="M1580 1440 c0 -82 2 -90 19 -90 16 0 20 8 23 38 3 34 6 37 33 37 27
0 30 -3 33 -37 3 -30 7 -38 23 -38 17 0 19 8 19 90 0 83 -1 90 -20 90 -16 0
-20 -7 -20 -35 0 -33 -2 -35 -35 -35 -33 0 -35 2 -35 35 0 28 -4 35 -20 35
-19 0 -20 -7 -20 -90z"/>
<path d="M2110 1441 c0 -84 1 -91 20 -91 18 0 20 7 21 63 l1 62 21 -57 c21
-56 46 -77 48 -40 0 9 9 35 19 57 l19 40 0 -62 c1 -49 4 -63 16 -63 12 0 15
17 15 90 0 87 -1 90 -23 90 -20 0 -26 -9 -41 -56 -10 -31 -20 -53 -24 -50 -3
4 -13 28 -22 54 -13 39 -21 48 -43 50 l-27 3 0 -90z"/>
<path d="M2410 1440 l0 -90 60 0 c47 0 60 3 60 15 0 11 -11 15 -41 15 -36 0
-40 2 -37 23 2 16 11 23 31 25 38 5 36 32 -3 32 -23 0 -30 4 -30 20 0 17 7 20
40 20 29 0 40 4 40 15 0 12 -13 15 -60 15 l-60 0 0 -90z"/>
<path d="M2760 1440 c0 -83 1 -90 20 -90 16 0 20 7 20 31 0 24 4 30 17 27 10
-2 24 -16 31 -31 8 -16 21 -27 33 -27 22 0 23 6 5 39 -11 20 -11 28 3 52 14
26 15 31 1 56 -14 25 -22 28 -73 31 l-57 3 0 -91z m97 44 c8 -20 -21 -49 -41
-41 -9 4 -16 18 -16 32 0 20 5 25 25 25 14 0 28 -7 32 -16z"/>
<path d="M3010 1440 l0 -90 60 0 c47 0 60 3 60 15 0 11 -11 15 -41 15 -36 0
-40 2 -37 23 2 17 11 23 36 25 46 5 43 32 -3 32 -28 0 -35 4 -35 20 0 16 7 20
35 20 24 0 35 5 35 15 0 12 -13 15 -55 15 l-55 0 0 -90z"/>
<path d="M3230 1440 c0 -83 2 -90 20 -90 16 0 19 8 22 63 l3 62 20 -54 c11
-30 25 -56 31 -58 11 -4 27 30 38 80 11 48 21 29 18 -33 -4 -55 -2 -60 17 -60
20 0 21 5 21 90 0 89 0 90 -24 90 -20 0 -28 -9 -42 -47 -9 -27 -20 -52 -24
-56 -4 -4 -15 17 -25 48 -17 49 -22 55 -47 55 l-28 0 0 -90z"/>
<path d="M3800 1440 l0 -90 50 0 c66 0 100 30 100 88 0 60 -35 92 -100 92
l-50 0 0 -90z m104 23 c11 -39 -13 -83 -44 -83 -18 0 -20 7 -20 61 0 60 0 60
27 57 21 -2 29 -10 37 -35z"/>
<path d="M4060 1440 l0 -91 57 3 c69 4 84 25 21 30 -35 2 -43 7 -43 23 0 15 8
21 33 23 41 4 45 32 4 32 -34 0 -43 7 -35 26 3 8 19 14 39 14 24 0 34 5 34 15
0 12 -13 15 -55 15 l-55 0 0 -90z"/>
<path d="M4280 1440 l0 -90 60 0 c47 0 60 3 60 15 0 10 -11 15 -35 15 l-35 0
0 75 c0 73 -1 75 -25 75 -25 0 -25 -1 -25 -90z"/>
<path d="M4850 1440 l0 -90 60 0 c46 0 60 3 60 14 0 10 -13 16 -37 18 l-36 3
2 73 c2 71 2 72 -23 72 -26 0 -26 0 -26 -90z"/>
<path d="M5080 1440 l0 -90 55 0 c42 0 55 3 55 15 0 10 -11 15 -35 15 l-35 0
0 75 c0 68 -2 75 -20 75 -19 0 -20 -7 -20 -90z"/>
<path d="M233 1104 c-4 -11 3 -23 20 -36 34 -25 34 -36 0 -41 -26 -4 -26 -4 5
-6 26 -1 32 3 32 19 0 11 -9 25 -20 32 -27 17 -25 36 3 41 19 4 18 4 -6 6 -17
0 -30 -5 -34 -15z"/>
<path d="M382 1070 c0 -37 2 -47 7 -30 9 32 45 34 49 3 6 -43 22 -23 22 27 0
28 -4 50 -10 50 -5 0 -10 -9 -10 -20 0 -30 -47 -28 -53 3 -2 12 -4 -3 -5 -33z"/>
<path d="M556 1073 c-20 -57 -20 -58 -1 -43 8 7 15 18 14 24 -3 29 2 47 12 40
6 -3 9 -16 7 -29 -3 -14 2 -26 15 -34 10 -7 17 -9 14 -4 -3 4 -10 27 -16 51
-7 23 -16 42 -20 42 -5 0 -16 -21 -25 -47z"/>
<path d="M701 1068 c1 -29 4 -43 6 -30 5 28 19 28 33 1 7 -11 14 -18 17 -15 3
3 1 12 -6 19 -9 11 -8 17 4 27 21 17 1 50 -30 50 -24 0 -25 -3 -24 -52z m47
25 c-2 -10 -10 -18 -18 -18 -8 0 -16 8 -18 18 -2 12 3 17 18 17 15 0 20 -5 18
-17z"/>
<path d="M860 1094 c6 -14 8 -30 4 -35 -3 -5 -1 -9 4 -9 6 0 12 16 14 35 3 28
1 35 -14 35 -15 0 -16 -4 -8 -26z"/>
<path d="M981 1068 c2 -52 2 -52 8 -13 l6 40 24 -40 c15 -25 26 -35 29 -26 2
7 0 16 -5 20 -5 3 -18 21 -28 39 -11 17 -23 32 -27 32 -4 0 -7 -24 -7 -52z"/>
<path d="M1154 1106 c-3 -8 -4 -29 -2 -48 2 -28 7 -34 30 -36 22 -3 29 2 34
23 8 31 1 40 -23 30 -16 -7 -17 -8 -1 -12 23 -6 11 -33 -14 -33 -16 0 -19 6
-16 38 2 31 7 37 25 36 12 0 20 3 17 8 -8 13 -44 9 -50 -6z"/>
<path d="M1412 1111 c-8 -5 -12 -23 -10 -47 3 -36 5 -39 33 -39 25 0 30 4 33
28 2 19 -1 27 -12 27 -19 0 -21 -16 -3 -23 9 -3 9 -7 0 -17 -21 -22 -45 -4
-41 32 2 25 9 34 28 39 20 6 21 7 5 8 -11 0 -26 -3 -33 -8z"/>
<path d="M1572 1108 c-14 -14 -16 -57 -3 -76 4 -8 19 -12 32 -10 20 2 25 10
27 42 4 50 -26 74 -56 44z m43 -38 c0 -28 -4 -35 -20 -35 -13 0 -21 8 -23 23
-5 34 5 54 25 50 13 -2 18 -13 18 -38z"/>
<path d="M1720 1070 c0 -48 1 -50 29 -50 30 0 41 14 41 54 0 28 -18 46 -47 46
-21 0 -23 -4 -23 -50z m55 0 c0 -28 -4 -35 -20 -35 -13 0 -21 8 -23 23 -5 34
5 54 25 50 13 -2 18 -13 18 -38z"/>
<path d="M1880 1105 c0 -8 2 -15 4 -15 2 0 6 7 10 15 3 8 1 15 -4 15 -6 0 -10
-7 -10 -15z"/>
<path d="M1986 1105 c-3 -9 6 -25 21 -39 20 -19 23 -26 12 -30 -8 -2 -21 -7
-29 -9 -8 -3 -2 -6 13 -6 41 -1 47 27 12 55 l-29 23 24 10 c23 9 24 10 4 10
-12 1 -24 -6 -28 -14z"/>
<path d="M2232 1073 c-2 -52 -1 -53 26 -52 22 1 23 2 5 6 -18 4 -23 12 -26 51
l-3 47 -2 -52z"/>
<path d="M2364 1106 c-3 -8 -4 -29 -2 -48 2 -26 8 -34 27 -36 13 -2 28 2 32
10 13 19 11 62 -3 76 -16 16 -47 15 -54 -2z m51 -16 c9 -30 -4 -60 -26 -60
-16 0 -19 7 -19 40 0 33 3 40 19 40 11 0 23 -9 26 -20z"/>
<path d="M2510 1117 c0 -16 34 -97 41 -97 4 0 13 19 20 43 6 23 14 46 17 51 3
5 0 6 -6 2 -6 -3 -13 -20 -17 -36 -10 -43 -23 -46 -31 -5 -3 19 -10 38 -15 41
-5 3 -9 3 -9 1z"/>
<path d="M2680 1070 c0 -48 1 -50 28 -49 23 2 24 2 5 6 -27 5 -31 39 -5 46 16
4 16 5 0 6 -26 2 -22 29 5 34 19 4 18 4 -5 6 -27 1 -28 -1 -28 -49z"/>
<path d="M2916 1093 c20 -80 39 -95 50 -38 7 40 19 38 27 -5 9 -43 21 -37 39
20 9 28 12 50 8 50 -5 0 -12 -16 -16 -35 -5 -31 -24 -50 -24 -26 0 5 -5 22
-11 38 -8 22 -12 24 -19 13 -6 -8 -10 -25 -10 -37 0 -33 -17 -28 -25 7 -4 16
-11 32 -16 36 -6 3 -7 -5 -3 -23z"/>
<path d="M3138 1113 c6 -2 12 -22 12 -43 0 -21 -6 -41 -12 -43 -7 -3 -4 -6 7
-6 17 -1 20 5 20 49 0 44 -3 50 -20 49 -11 0 -14 -3 -7 -6z"/>
<path d="M3273 1108 c9 -7 18 -31 20 -53 l4 -40 1 47 c1 26 7 49 15 51 6 3 -3
6 -22 6 -30 1 -33 -1 -18 -11z"/>
<path d="M3413 1070 c0 -30 2 -45 4 -32 6 30 53 32 53 2 0 -11 5 -20 10 -20 6
0 10 23 10 50 0 28 -4 50 -10 50 -5 0 -10 -9 -10 -20 0 -30 -47 -28 -53 3 -2
12 -4 -3 -4 -33z"/>
<path d="M3682 1113 c12 -3 18 -18 21 -51 l3 -47 2 47 c2 35 6 48 20 51 9 3
-1 5 -23 5 -22 0 -32 -2 -23 -5z"/>
<path d="M3820 1070 c0 -27 5 -50 10 -50 6 0 10 10 10 23 0 33 42 30 51 -4 5
-16 7 -5 7 31 -1 30 -3 45 -5 33 -6 -31 -53 -33 -53 -3 0 11 -4 20 -10 20 -5
0 -10 -22 -10 -50z"/>
<path d="M3990 1070 c0 -48 1 -50 28 -49 23 2 24 2 5 6 -27 5 -30 28 -5 42 16
10 16 10 0 11 -26 0 -22 28 5 33 19 4 18 4 -5 6 -27 1 -28 -1 -28 -49z"/>
<path d="M4231 1068 c2 -52 2 -52 8 -13 l6 40 18 -32 c28 -52 37 -49 36 9 -2
51 -2 51 -8 14 l-6 -40 -20 37 c-11 20 -23 37 -27 37 -5 0 -7 -24 -7 -52z"/>
<path d="M4400 1070 c0 -48 1 -50 28 -49 23 2 24 2 5 6 -27 5 -31 39 -5 46 16
4 16 5 0 6 -26 2 -22 29 5 34 19 4 18 4 -5 6 -27 1 -28 -1 -28 -49z"/>
<path d="M4545 1070 c0 -44 3 -50 20 -49 11 0 14 3 8 6 -7 2 -13 22 -13 43 0
21 6 41 13 43 6 3 3 6 -8 6 -17 1 -20 -5 -20 -49z"/>
<path d="M4672 1108 c-13 -13 -16 -47 -6 -72 8 -21 51 -20 62 2 12 21 5 42
-14 42 -17 0 -19 -17 -1 -23 9 -3 9 -7 0 -17 -21 -22 -45 -4 -41 32 2 25 9 34
28 39 21 6 22 7 5 8 -12 1 -26 -4 -33 -11z"/>
<path d="M4823 1070 c0 -30 2 -45 4 -32 5 25 40 31 61 10 9 -9 12 -4 12 25 0
20 -4 37 -10 37 -5 0 -9 -6 -7 -12 1 -7 -10 -14 -25 -16 -21 -3 -27 2 -31 20
-2 13 -4 -2 -4 -32z"/>
<path d="M4990 1071 c0 -48 2 -51 25 -51 31 0 39 17 28 61 -7 24 -16 35 -31
37 -20 3 -22 -1 -22 -47z m40 24 c0 -8 -7 -15 -15 -15 -8 0 -15 7 -15 15 0 8
7 15 15 15 8 0 15 -7 15 -15z m5 -45 c0 -8 -8 -16 -17 -18 -13 -2 -18 3 -18
18 0 15 5 20 18 18 9 -2 17 -10 17 -18z"/>
<path d="M5140 1101 c-22 -43 -5 -81 36 -81 23 0 34 17 34 54 0 44 -50 63 -70
27z m56 -16 c8 -34 -1 -55 -26 -55 -17 0 -20 6 -20 40 0 33 3 40 20 40 13 0
22 -9 26 -25z"/>
<path d="M5301 1068 c1 -39 3 -46 8 -28 l7 25 15 -22 c7 -13 17 -23 21 -23 5
0 3 9 -4 19 -9 15 -9 23 1 35 17 20 -1 46 -30 46 -16 0 -19 -7 -18 -52z m37
25 c-5 -25 -28 -28 -28 -4 0 12 6 21 16 21 9 0 14 -7 12 -17z"/>
<path d="M855 1030 c-3 -5 3 -10 15 -10 12 0 18 5 15 10 -3 6 -10 10 -15 10
-5 0 -12 -4 -15 -10z"/>
</g>
</svg>
