<?xml version="1.0" standalone="no"?>
<!DOCTYPE svg PUBLIC "-//W3C//DTD SVG 20010904//EN"
 "http://www.w3.org/TR/2001/REC-SVG-20010904/DTD/svg10.dtd">
<svg version="1.0" xmlns="http://www.w3.org/2000/svg"
 width="200.000000pt" height="100.000000pt" viewBox="0 0 200.000000 100.000000"
 preserveAspectRatio="xMidYMid meet">
<metadata>
Created by potrace 1.16, written by Peter Selinger 2001-2019
</metadata>
<g transform="translate(0.000000,100.000000) scale(0.100000,-0.100000)"
fill="#000000" stroke="none">
<path d="M0 735 c0 -258 1 -265 20 -265 13 0 20 -7 20 -20 0 -13 -7 -20 -20
-20 -19 0 -20 -7 -20 -110 0 -67 4 -110 10 -110 6 0 10 5 10 10 0 6 8 10 19
10 12 0 20 9 23 25 3 14 2 25 -1 25 -4 0 -6 20 -6 45 0 44 1 45 33 45 22 0 32
-5 32 -15 0 -8 4 -15 9 -15 5 0 8 -8 7 -17 -1 -14 7 -18 37 -20 35 -1 37 0 35
29 -2 28 -5 29 -39 26 -21 -2 -35 0 -33 4 7 12 62 10 86 -3 14 -8 18 -8 14 0
-5 7 35 10 131 9 76 -1 128 -3 116 -5 -13 -3 -23 -11 -23 -19 0 -17 -16 -19
-26 -2 -5 7 -3 8 6 3 9 -5 11 -4 6 3 -19 31 -42 2 -30 -38 5 -13 6 -13 14 0 8
13 10 12 10 -2 0 -10 5 -18 11 -18 5 0 8 4 5 8 -7 12 25 8 51 -6 32 -17 33
-16 33 34 l0 45 98 -2 c159 -2 199 0 182 11 -12 8 -9 10 13 10 15 0 27 4 27
10 0 5 -7 7 -15 4 -11 -5 -15 1 -15 22 0 16 4 35 9 43 7 11 10 10 18 -4 9 -15
11 -15 16 -2 4 11 17 15 44 12 21 -1 43 1 50 7 7 6 14 5 18 -2 3 -6 11 -7 18
-3 17 10 60 11 81 0 12 -6 16 -6 12 1 -8 14 55 13 72 -1 8 -6 17 -6 27 3 8 6
18 9 23 6 5 -3 9 16 8 42 -1 50 2 48 -63 40 -7 -1 -13 -5 -13 -10 0 -4 -9 -8
-20 -8 -12 0 -20 6 -19 13 3 27 -2 52 -9 42 -4 -5 -16 -17 -26 -25 -18 -14
-19 -14 -7 8 6 12 16 22 22 22 6 0 7 5 3 12 -4 6 4 3 18 -8 14 -10 24 -22 22
-25 -8 -14 33 -16 51 -3 26 19 76 -16 67 -49 -5 -20 -4 -21 14 -7 10 8 23 21
27 28 5 7 12 10 18 7 5 -4 6 2 2 11 -3 10 -2 15 3 12 5 -3 10 11 11 31 1 20 9
52 18 71 l16 35 -4 -62 c-2 -35 0 -63 5 -63 4 0 8 -9 8 -20 0 -12 -7 -20 -17
-20 -10 0 -26 -10 -38 -23 -11 -13 -15 -16 -10 -7 9 13 8 13 -7 1 -10 -7 -18
-20 -18 -27 0 -8 -8 -14 -17 -14 -17 -1 -17 -1 0 -14 24 -19 21 -41 -8 -54
-42 -19 -75 -15 -75 9 0 11 -7 27 -15 35 -13 14 -15 14 -15 0 0 -9 5 -16 10
-16 23 0 8 -16 -17 -18 -15 -1 -29 -6 -32 -11 -9 -13 -109 -34 -137 -28 -13 2
-27 0 -30 -4 -3 -5 -22 -10 -42 -10 -36 -1 -36 -2 -7 -8 27 -5 30 -10 33 -48
2 -24 -1 -51 -7 -60 -6 -10 -11 -12 -11 -5 0 6 -7 12 -15 12 -8 0 -15 -6 -15
-12 0 -10 -2 -10 -8 -2 -7 12 -30 17 -69 15 -31 -1 -33 -57 -3 -64 17 -4 16
-4 -2 -3 -19 1 -24 8 -26 36 -2 19 -8 38 -14 42 -8 4 -6 12 5 23 15 15 17 15
17 1 0 -9 5 -16 10 -16 6 0 10 8 10 18 0 9 4 13 8 7 13 -18 32 -15 32 5 0 11
-6 20 -12 20 -9 0 -8 4 2 10 12 8 11 10 -7 10 -14 0 -23 -6 -23 -15 0 -18 -16
-20 -26 -3 -5 7 -3 8 6 3 9 -5 11 -4 6 3 -4 7 -16 12 -27 12 -18 0 -20 -6 -18
-49 2 -28 6 -48 11 -45 4 3 7 -10 7 -28 -1 -24 -3 -27 -6 -10 -2 12 -9 20 -14
17 -5 -4 -9 1 -9 9 0 20 -9 20 -32 -1 -17 -15 -18 -15 -18 0 0 10 5 17 10 17
6 0 10 7 10 15 0 8 3 14 8 14 18 -3 20 3 11 31 -12 34 -35 39 -56 12 -8 -9
-11 -11 -7 -3 5 9 3 12 -4 7 -7 -4 -12 -14 -12 -22 0 -8 4 -12 10 -9 6 3 10
-1 10 -10 0 -9 4 -13 10 -10 5 3 10 1 10 -4 0 -6 -9 -12 -20 -13 -11 -1 -35
-3 -52 -5 -18 -2 -50 -3 -70 -3 -21 0 -38 -5 -38 -10 0 -6 -4 -10 -10 -10 -5
0 -10 7 -10 16 0 13 -7 15 -32 10 -18 -3 -36 -12 -40 -19 -8 -13 -11 -1 -9 38
1 18 0 18 -9 -2 -6 -15 -18 -23 -34 -23 -20 0 -24 -4 -21 -25 1 -14 -2 -28 -6
-31 -5 -3 -9 9 -9 25 0 17 -4 31 -10 31 -6 0 -6 9 0 24 5 13 6 27 3 30 -4 3
-1 6 6 6 9 0 8 4 -3 15 -8 8 -26 15 -40 15 -22 0 -26 -4 -26 -30 0 -41 37 -43
43 -2 2 15 4 3 4 -26 0 -29 -3 -49 -6 -44 -3 5 -19 12 -34 16 -25 6 -28 10
-22 36 4 17 2 30 -3 30 -5 0 -10 -6 -9 -12 1 -38 -4 -48 -26 -48 -28 0 -79
-40 -59 -47 17 -6 15 -20 -3 -20 -10 0 -15 10 -15 29 0 16 4 27 8 24 5 -3 9 2
9 10 0 10 -4 11 -11 4 -5 -5 -18 -10 -28 -10 -13 0 -18 -8 -18 -26 0 -26 -20
-54 -39 -54 -6 0 -11 -4 -11 -10 0 -5 -7 -10 -15 -10 -12 0 -15 -16 -15 -85
l0 -85 365 0 c318 0 365 2 365 15 0 8 9 15 20 15 11 0 20 -7 20 -15 0 -13 34
-15 245 -15 211 0 245 2 245 15 0 8 9 15 20 15 11 0 20 -7 20 -15 0 -13 27
-15 180 -15 173 0 180 1 180 20 0 13 7 20 20 20 13 0 20 -7 20 -20 0 -19 7
-20 150 -20 l150 0 0 500 0 500 -1000 0 -1000 0 0 -265z m960 5 c0 -5 7 -10
15 -10 21 0 21 -66 -1 -74 -9 -3 -41 -6 -72 -6 -59 0 -137 -21 -125 -33 3 -4
1 -8 -5 -8 -7 -1 -17 -2 -22 -3 -6 0 -15 -8 -20 -16 -6 -9 -10 -10 -10 -3 0 6
10 19 23 28 13 10 16 16 7 14 -39 -4 -50 2 -50 26 0 18 5 25 20 25 11 0 20 7
20 15 0 23 36 18 66 -10 27 -25 84 -35 84 -15 0 6 -9 10 -20 10 -15 0 -20 7
-20 25 0 20 5 25 25 25 14 0 25 5 25 10 0 6 14 10 30 10 17 0 30 -4 30 -10z
m330 -350 c0 -11 7 -20 15 -20 8 0 15 -7 15 -15 0 -8 5 -15 10 -15 6 0 9 6 8
13 -2 7 11 13 35 15 30 3 37 0 37 -15 1 -17 1 -17 11 0 8 13 24 17 78 17 l69
0 6 -34 c9 -48 -1 -82 -25 -83 -11 -1 -17 2 -14 8 4 5 -1 9 -9 9 -20 0 -21
-27 -1 -47 20 -20 13 -27 -20 -19 -29 7 -35 45 -10 66 20 16 20 51 1 44 -11
-4 -13 0 -9 16 4 16 8 18 14 8 7 -10 9 -9 9 5 0 12 -8 17 -30 17 -27 0 -30 -3
-30 -30 0 -28 8 -35 38 -31 6 1 12 -3 12 -9 0 -5 -8 -10 -18 -10 -15 0 -17 -6
-14 -35 3 -21 0 -35 -7 -35 -11 0 -15 12 -12 43 2 10 -5 17 -14 17 -9 0 -14 4
-11 9 4 5 -3 7 -14 4 -11 -3 -20 -13 -21 -22 0 -10 -2 -11 -6 -3 -7 18 -33 15
-34 -5 -1 -17 -2 -17 -6 0 -2 9 -11 17 -20 17 -11 0 -13 -7 -8 -31 6 -26 4
-30 -12 -27 -24 4 -29 42 -9 70 9 12 16 19 16 15 0 -5 7 -2 15 7 14 14 14 17
-5 36 -28 28 -46 25 -59 -10 -9 -28 -7 -34 12 -31 17 3 5 -21 -13 -26 -11 -3
-20 -10 -20 -16 0 -6 -6 -2 -14 9 -14 18 -15 18 -25 -6 -7 -18 -10 -20 -10 -7
-1 20 -41 24 -42 5 0 -10 -2 -10 -6 0 -9 23 -23 12 -23 -19 0 -18 -4 -28 -10
-24 -6 3 -7 17 -4 31 5 21 3 24 -20 24 -14 0 -26 -6 -27 -12 0 -10 -2 -10 -6
0 -2 6 -8 12 -13 12 -4 0 -8 -6 -7 -12 0 -7 -1 -22 -2 -33 -3 -17 -4 -17 -11
5 -8 24 -8 24 -9 3 -2 -36 -31 -29 -31 7 0 21 5 30 18 31 16 1 16 2 0 6 -18 4
-25 22 -10 24 53 8 72 5 73 -10 1 -14 2 -14 6 0 3 11 12 15 29 11 14 -2 24 -1
23 4 -4 21 2 44 10 44 6 0 11 -14 13 -32 3 -30 4 -31 21 -14 15 15 17 15 17 2
0 -9 5 -16 10 -16 6 0 10 8 10 18 0 14 2 15 10 2 7 -11 10 -7 10 18 0 17 -4
32 -10 32 -5 0 -9 -6 -7 -12 1 -7 -5 -13 -13 -13 -8 0 -14 6 -12 13 1 8 -15
12 -58 12 -52 0 -60 -2 -60 -19 0 -10 -7 -22 -16 -25 -8 -3 -13 -2 -9 3 11 20
-8 41 -37 41 -29 0 -30 -1 -26 -45 3 -38 0 -45 -14 -45 -10 0 -18 -5 -18 -12
0 -6 -3 -8 -7 -4 -5 4 0 13 9 20 9 7 18 29 20 52 3 37 5 39 41 42 30 3 37 0
37 -15 1 -17 1 -17 11 0 8 14 25 17 99 17 56 0 91 -4 96 -12 4 -7 3 -8 -4 -4
-8 5 -12 -6 -12 -35 0 -46 9 -50 12 -6 1 15 6 27 11 27 4 0 5 16 1 35 -5 31
-4 35 15 35 14 0 21 -6 21 -20z m491 -42 l0 -23 9 23 c6 14 18 22 33 22 20 0
23 -4 19 -25 -3 -20 -1 -24 12 -19 9 3 16 12 16 19 0 15 22 25 56 25 19 0 24
-5 23 -22 -1 -17 -2 -19 -6 -5 -2 9 -13 17 -24 17 -11 0 -18 -4 -15 -9 4 -5 1
-11 -4 -13 -6 -2 -12 -17 -13 -33 -3 -32 5 -31 -139 -34 -24 -1 -28 -5 -28
-30 0 -20 6 -31 18 -34 9 -3 -3 -5 -28 -4 -25 0 -35 2 -22 4 26 5 29 28 5 51
-13 13 -17 14 -21 3 -4 -11 -6 -11 -13 0 -7 11 -9 9 -10 -6 l0 -20 -8 20 c-10
24 -3 47 11 39 7 -4 8 6 3 27 -4 25 -3 30 4 19 9 -13 11 -13 11 2 0 11 5 15
15 12 16 -7 21 -44 6 -44 -5 0 -11 -7 -15 -15 -4 -10 1 -15 14 -15 16 0 20 7
20 38 0 46 5 52 42 52 22 0 28 -5 29 -22z"/>
</g>
</svg>
